<svg xmlns="http://www.w3.org/2000/svg" width="30" height="31" viewBox="0 0 30 31" fill="none">
  <path d="M12.3251 23.4142H12.3263H12.3388V23.4142L12.3435 23.4142C12.5675 23.4114 12.7885 23.3623 12.9927 23.27C13.1964 23.1779 13.379 23.0448 13.5289 22.8789C13.5292 22.8786 13.5295 22.8782 13.5297 22.8779L24.9467 10.3867C25.1011 10.2332 25.2232 10.0501 25.3055 9.84841C25.3892 9.64334 25.4301 9.42332 25.4256 9.20187C25.4212 8.98042 25.3715 8.76221 25.2797 8.56065C25.1879 8.35908 25.0558 8.17843 24.8916 8.02977C24.7274 7.8811 24.5346 7.76758 24.3249 7.69616C24.1152 7.62474 23.8932 7.59694 23.6724 7.61447C23.4516 7.63199 23.2367 7.69447 23.0409 7.79807C22.8489 7.89967 22.6793 8.03873 22.542 8.20697L12.3102 19.3999L7.43729 14.2076C7.43728 14.2076 7.43727 14.2076 7.43727 14.2076C7.14212 13.893 6.73412 13.7086 6.30302 13.6949C5.87191 13.6812 5.45301 13.8393 5.13848 14.1345C4.82394 14.4296 4.63953 14.8376 4.62582 15.2688C4.61211 15.6999 4.77022 16.1188 5.06537 16.4333L5.0656 16.4335L11.1389 22.8942C11.1392 22.8945 11.1395 22.8949 11.1398 22.8952C11.2912 23.0581 11.4743 23.1882 11.6779 23.2775C11.882 23.3669 12.1023 23.4135 12.3251 23.4142Z" fill="url(#paint0_linear_2177_649)" stroke="#49D043" stroke-width="0.75"/>
  <defs>
    <linearGradient id="paint0_linear_2177_649" x1="3.94476" y1="7.98437" x2="29.1321" y2="6.41636" gradientUnits="userSpaceOnUse">
      <stop offset="1" stop-color="#49D043"/>
    </linearGradient>
  </defs>
</svg>